<svg width="30" height="30" viewBox="0 0 30 30" fill="none" xmlns="http://www.w3.org/2000/svg">
<g clip-path="url(#clip0)">
<path d="M10.8522 27.2937C11.5564 28.8858 13.1501 30 15.0001 30C16.85 30 18.4437 28.8858 19.148 27.2937H10.8522Z" fill="#237C80"/>
<path d="M14.9997 2.86621C16.2205 2.86621 17.3926 3.0816 18.4804 3.47594V3.34195C18.4804 1.49919 16.9812 0 15.1385 0H14.8615C13.0188 0 11.5196 1.49919 11.5196 3.34195V3.47424C12.6068 3.08107 13.7786 2.86621 14.9997 2.86621Z" fill="#237C80"/>
<path d="M25.985 25.533H4.0149C3.59925 25.533 3.21853 25.2527 3.13208 24.8461C3.04651 24.4435 3.22997 24.0462 3.60219 23.8742C3.69052 23.8169 4.35536 23.352 5.02097 21.9455C6.24344 19.3626 6.50003 15.724 6.50003 13.1265C6.50003 8.43978 10.313 4.62695 14.9996 4.62695C19.6752 4.62695 23.4811 8.42141 23.4992 13.0928C23.4996 13.104 23.4998 13.1152 23.4998 13.1265C23.4998 15.724 23.7564 19.3626 24.9789 21.9455C25.6445 23.352 26.3093 23.817 26.3977 23.8742C26.7699 24.0462 26.9534 24.4434 26.8678 24.8461C26.7814 25.2526 26.4007 25.533 25.985 25.533ZM26.4076 23.8804H26.4081H26.4076Z" fill="#237C80"/>
</g>
<defs>
<clipPath id="clip0">
<rect width="30" height="30" fill="white"/>
</clipPath>
</defs>
</svg>
