<svg width="50" height="88" viewBox="0 0 50 88" fill="none" xmlns="http://www.w3.org/2000/svg">
<path d="M25.2951 82.139C25.2951 85.0268 18.4499 87.3263 17.4339 87.3263C16.4178 87.3263 15.6156 84.9733 15.6156 82.139C15.6156 79.2511 16.4178 76.9516 17.4339 76.9516C18.4499 76.8981 25.2951 79.2511 25.2951 82.139Z" fill="#237C80"/>
<path d="M24.1186 79.9998C24.0651 80.0532 24.0651 80.0532 24.0116 80.1067C23.6908 80.3206 23.2629 80.4276 22.8886 80.4811C23.1025 80.8019 23.6373 81.1763 23.4234 81.5506C23.2095 81.925 22.8351 81.8715 22.5142 81.8715C22.7282 81.9784 22.9421 82.0854 23.156 82.1924C23.3164 82.2993 23.6373 82.4063 23.7442 82.5667C23.9047 82.8876 23.4769 83.2619 23.156 83.4758C23.3699 83.4758 23.6373 83.4758 23.8512 83.4224C23.9047 83.4224 23.9582 83.4758 23.9582 83.5293C23.9047 83.8502 23.5303 84.0641 23.2629 84.2245C22.8351 84.4384 22.4073 84.6523 21.9795 84.8128C20.8564 85.2406 19.7869 86.0428 18.6103 85.9358C17.6477 85.8823 17.006 84.9197 16.9525 84.0641C16.8991 83.5828 16.9525 83.1015 17.3269 82.7806C17.6477 82.4598 18.0756 82.2458 18.3964 81.925C17.2734 81.7111 16.2038 81.2298 15.8295 80.2137C15.776 80.8019 15.7225 81.3902 15.7225 82.0854C15.7225 84.9732 16.5247 87.2728 17.5408 87.2728C18.5569 87.2728 25.4021 84.9197 25.4021 82.0854C25.2951 81.3367 24.8138 80.6415 24.1186 79.9998Z" fill="#237C80"/>
<path d="M24.8138 81.3368C24.279 80.9089 23.5303 80.695 22.8886 80.4276C22.1399 80.1602 21.3377 79.8929 20.5355 79.679C20.4821 79.679 20.4821 79.7324 20.4821 79.7324C21.1773 80.0533 21.8725 80.3207 22.5142 80.6416C23.156 80.9624 23.9047 81.4437 24.6533 81.5507C24.8138 81.6041 24.9207 81.4437 24.8138 81.3368Z" fill="#71A6E1"/>
<path d="M24.386 81.9786C23.8512 81.8716 23.3164 81.9251 22.8351 81.9251C22.2469 81.8716 21.6586 81.8182 21.1238 81.8716C21.0704 81.8716 21.0704 81.9251 21.1238 81.9786C21.6052 82.139 22.1399 82.139 22.6212 82.1925C23.2095 82.246 23.8512 82.3529 24.386 82.1925C24.493 82.1925 24.5464 82.0321 24.386 81.9786Z" fill="#71A6E1"/>
<path d="M24.7604 82.6202C24.1721 82.7807 23.6374 83.262 23.1026 83.5828C22.4074 84.0107 21.6587 84.1711 20.91 84.4385C20.8565 84.4385 20.8565 84.5454 20.91 84.5454C21.5517 84.4385 22.1935 84.385 22.7817 84.1176C23.5304 83.7968 24.1721 83.262 24.8674 82.8341C24.9743 82.7807 24.9208 82.6202 24.7604 82.6202Z" fill="#71A6E1"/>
<path d="M26.3647 82.139C26.3647 85.0268 33.2099 87.3263 34.226 87.3263C35.2421 87.3263 36.0443 84.9733 36.0443 82.139C36.0443 79.2511 35.2421 76.9516 34.226 76.9516C33.2099 76.8981 26.3647 79.2511 26.3647 82.139Z" fill="#237C80"/>
<path d="M27.5947 79.9998C27.6482 80.0532 27.6482 80.0532 27.7017 80.1067C28.0226 80.3206 28.4504 80.4276 28.8247 80.4811C28.6108 80.8019 28.0761 81.1763 28.29 81.5506C28.5039 81.925 28.8782 81.8715 29.1991 81.8715C28.9852 81.9784 28.7713 82.0854 28.5574 82.1924C28.3969 82.2993 28.0761 82.4063 27.9691 82.5667C27.8087 82.8876 28.2365 83.2619 28.5574 83.4758C28.3434 83.4758 28.0761 83.4758 27.8621 83.4224C27.8087 83.4224 27.7552 83.4758 27.7552 83.5293C27.8087 83.8502 28.183 84.0641 28.4504 84.2245C28.8782 84.4384 29.306 84.6523 29.7339 84.8128C30.8569 85.2406 31.9265 86.0428 33.103 85.9358C34.0656 85.8823 34.7073 84.9197 34.7608 84.0641C34.8143 83.5828 34.7608 83.1015 34.3865 82.7806C34.0656 82.4598 33.6378 82.2458 33.3169 81.925C34.4399 81.7111 35.5095 81.2298 35.8839 80.2137C35.9373 80.8019 35.9908 81.3902 35.9908 82.0854C35.9908 84.9732 35.1886 87.2728 34.1726 87.2728C33.1565 87.2728 26.3113 84.9197 26.3113 82.0854C26.3648 81.3367 26.8461 80.6415 27.5947 79.9998Z" fill="#237C80"/>
<path d="M26.8995 81.3367C27.4342 80.9089 28.1829 80.695 28.8247 80.4276C29.5734 80.1602 30.3755 79.8929 31.1777 79.679C31.2312 79.679 31.2312 79.7324 31.2312 79.7324C30.536 80.0533 29.8408 80.3207 29.199 80.6415C28.5573 80.9624 27.8086 81.4437 27.0599 81.5507C26.8995 81.6041 26.739 81.4437 26.8995 81.3367Z" fill="#71A6E1"/>
<path d="M27.2739 81.9786C27.8087 81.8716 28.3435 81.9251 28.8248 81.9251C29.4131 81.8716 30.0013 81.8182 30.5361 81.8716C30.5896 81.8716 30.5896 81.9251 30.5361 81.9786C30.0548 82.139 29.52 82.139 29.0387 82.1925C28.4505 82.246 27.8087 82.3529 27.2739 82.1925C27.167 82.1925 27.167 82.0321 27.2739 81.9786Z" fill="#71A6E1"/>
<path d="M26.8995 82.6202C27.4878 82.7807 28.0226 83.262 28.5574 83.5828C29.2526 84.0107 30.0013 84.1711 30.75 84.4385C30.8035 84.4385 30.8035 84.5454 30.75 84.5454C30.1082 84.4385 29.4665 84.385 28.8782 84.1176C28.1296 83.7968 27.4878 83.262 26.7926 82.8341C26.6856 82.7807 26.7926 82.6202 26.8995 82.6202Z" fill="#71A6E1"/>
<path d="M27.6482 83.7968C27.2739 84.3851 24.8673 84.3851 24.2791 83.7968C23.6908 83.2085 23.6908 80.3207 24.2791 79.9998C24.8673 79.679 27.2739 79.572 27.6482 79.9998C27.9691 80.4277 28.0226 83.2085 27.6482 83.7968Z" fill="#237C80"/>
<path d="M26.3648 82.9412C25.6696 83.1016 25.0278 82.9412 24.6 82.4064C24.1187 81.8716 24.0117 81.1764 24.0117 80.4812C23.7444 81.4438 23.8513 83.3155 24.2791 83.7434C24.8674 84.3316 27.2739 84.3316 27.6483 83.7434C27.8087 83.476 27.9156 82.6738 27.9156 81.9251C27.4878 82.4599 27.0065 82.8342 26.3648 82.9412Z" fill="#237C80"/>
<path d="M9.60135 65.4618C10.6254 65.4618 11.4972 65.825 12.2168 66.5516C12.9433 67.2712 13.3066 68.143 13.3066 69.167C13.3066 70.191 12.9433 71.0663 12.2168 71.7928C11.4972 72.5124 10.6254 72.8722 9.60135 72.8722C8.70186 72.8722 7.91307 72.5851 7.23499 72.0108C6.55691 71.4365 6.14176 70.7134 5.98954 69.8416H5.00356V72.7996H3.57129V65.5344H5.00356V68.4924H5.98954C6.14176 67.6275 6.55691 66.9079 7.23499 66.3336C7.91307 65.7524 8.70186 65.4618 9.60135 65.4618ZM9.60135 71.523C10.2518 71.523 10.7914 71.305 11.2204 70.8691C11.6563 70.4263 11.8743 69.8589 11.8743 69.167C11.8743 68.482 11.6563 67.9181 11.2204 67.4753C10.7845 67.0324 10.2448 66.811 9.60135 66.811C8.95787 66.811 8.41817 67.0324 7.98226 67.4753C7.55327 67.9181 7.33878 68.482 7.33878 69.167C7.33878 69.8589 7.55327 70.4263 7.98226 70.8691C8.41817 71.305 8.95787 71.523 9.60135 71.523Z" fill="#237C80"/>
<path d="M15.7949 68.3471C16.2239 67.8143 16.8016 67.5479 17.5281 67.5479C18.2546 67.5479 18.8566 67.8039 19.334 68.3159C19.8115 68.828 20.0502 69.4576 20.0502 70.2049C20.0502 70.9521 19.8115 71.5853 19.334 72.1042C18.8566 72.6162 18.2546 72.8722 17.5281 72.8722C16.9677 72.8722 16.511 72.6785 16.1581 72.291V74.7093H14.84V67.6102H15.7222L15.7949 68.3471ZM17.3932 68.8245C17.0334 68.8245 16.7186 68.9525 16.4487 69.2085C16.1858 69.4645 16.0543 69.7966 16.0543 70.2049C16.0543 70.6131 16.1858 70.9487 16.4487 71.2116C16.7186 71.4676 17.0334 71.5956 17.3932 71.5956C17.753 71.5956 18.0644 71.4676 18.3273 71.2116C18.5971 70.9487 18.7321 70.6131 18.7321 70.2049C18.7321 69.7966 18.6006 69.4645 18.3377 69.2085C18.0747 68.9525 17.7599 68.8245 17.3932 68.8245Z" fill="#237C80"/>
<path d="M26.3442 72.7996H25.0261V69.7378L22.3692 72.7996H21.5181V67.6102H22.8362V70.6719L25.4932 67.6102H26.3442V72.7996Z" fill="#237C80"/>
<path d="M31.718 72.7996L30.8254 71.4192C30.6594 71.1632 30.5106 70.9902 30.3791 70.9003C30.2546 70.8103 30.0747 70.7653 29.8394 70.7653H29.4762V72.7996H28.1581V67.6102H29.4762V69.4991H29.7979C30.0332 69.4991 30.2131 69.4541 30.3376 69.3642C30.4622 69.2743 30.6075 69.1013 30.7735 68.8453L31.5831 67.6102H33.0465L31.8841 69.3642C31.6211 69.7724 31.3755 70.025 31.1472 70.1218C31.3824 70.198 31.6453 70.4574 31.936 70.9003L33.1814 72.7996H31.718Z" fill="#237C80"/>
<path d="M34.7967 71.4711C35.0112 71.4711 35.1945 71.5403 35.3468 71.6787C35.499 71.8101 35.5751 71.9762 35.5751 72.1768C35.5751 72.3706 35.499 72.5366 35.3468 72.675C35.1945 72.8065 35.0112 72.8722 34.7967 72.8722C34.5753 72.8722 34.3884 72.8065 34.2362 72.675C34.084 72.5366 34.0079 72.3706 34.0079 72.1768C34.0079 71.9762 34.084 71.8101 34.2362 71.6787C34.3884 71.5403 34.5753 71.4711 34.7967 71.4711Z" fill="#237C80"/>
<path d="M39.8482 67.5375C40.5816 67.5375 41.1974 67.797 41.6956 68.3159C42.1938 68.8349 42.4429 69.4645 42.4429 70.2049C42.4429 70.9452 42.1938 71.5749 41.6956 72.0938C41.1974 72.6058 40.5816 72.8618 39.8482 72.8618C39.4331 72.8618 39.0525 72.7615 38.7066 72.5609C38.3675 72.3533 38.108 72.08 37.9281 71.7409V74.7093H37.1705V67.6102H37.7102L37.7413 68.783C37.942 68.4094 38.2291 68.1084 38.6028 67.88C38.9764 67.6517 39.3915 67.5375 39.8482 67.5375ZM39.7859 68.2641C39.2601 68.2641 38.8103 68.4509 38.4367 68.8245C38.0631 69.1912 37.8762 69.6513 37.8762 70.2049C37.8762 70.7584 38.0631 71.222 38.4367 71.5956C38.8103 71.9623 39.2601 72.1457 39.7859 72.1457C40.3049 72.1457 40.7512 71.9623 41.1248 71.5956C41.4984 71.222 41.6853 70.7584 41.6853 70.2049C41.6853 69.6513 41.4984 69.1912 41.1248 68.8245C40.7512 68.4509 40.3049 68.2641 39.7859 68.2641Z" fill="#237C80"/>
<path d="M48.9706 67.6102V72.1457C48.9706 72.9414 48.7492 73.578 48.3063 74.0554C47.8704 74.5328 47.2512 74.775 46.4485 74.7819C45.6044 74.7819 44.8606 74.519 44.2171 73.9931L44.653 73.5157C45.2204 73.9032 45.8189 74.0969 46.4485 74.0969C47.0159 74.0969 47.4484 73.9412 47.7459 73.6299C48.0503 73.3185 48.2025 72.8722 48.2025 72.291V71.6787C48.0226 72.0523 47.7597 72.3325 47.4138 72.5193C47.0678 72.6992 46.7045 72.7892 46.324 72.7892C45.6113 72.7892 45.0543 72.5712 44.653 72.1353C44.2586 71.6994 44.0614 71.094 44.0614 70.319V67.6102H44.8191V70.2879C44.8191 70.8899 44.9609 71.3362 45.2446 71.6268C45.5283 71.9174 45.9227 72.0627 46.4278 72.0627C46.9744 72.0627 47.4068 71.8828 47.7251 71.523C48.0503 71.1632 48.2129 70.6581 48.2129 70.0077V67.6102H48.9706Z" fill="#237C80"/>
<path d="M48.5581 26.6074C48.0233 20.8852 46.6864 17.5696 46.419 16.0187C46.419 15.4305 46.3655 14.8422 46.312 14.2005C47.5955 11.5801 45.5098 8.58529 43.2638 6.1253C42.6755 3.39792 39.4668 3.02357 36.0977 2.11444C33.5308 -0.292073 26.5786 -0.612942 24.8138 0.991401C24.3325 0.991401 23.8512 0.991401 23.4234 1.04488C21.4447 -1.14772 17.7012 1.74009 15.7226 2.11444C13.8508 0.45662 10.0004 1.84705 7.11258 5.75095C5.8291 4.94878 2.88781 6.87399 3.68998 9.06659C1.55086 11.8475 0.909121 14.8422 1.49738 17.1418C0.0534715 19.6553 0 23.5592 0 26.1261C0.106956 31.2065 0.695208 35.7522 0.695208 35.7522C0.695208 35.7522 1.60434 40.6187 5.40128 38.4261C8.55649 35.6452 4.59911 34.7895 7.43345 28.907C7.86127 27.9978 4.27824 25.5913 7.70084 19.9226C9.83996 16.3931 15.776 21.3666 25.1882 21.3666C36.3651 21.3666 37.809 15.9653 42.6755 19.9226C45.7772 22.4896 45.3494 26.7678 44.3333 29.6022C46.5259 32.6504 43.4777 36.8752 46.419 38.3726C50.0555 36.1265 48.8255 29.6556 48.5581 26.6074Z" fill="#71A6E1"/>
<path d="M31.5522 25.8587C31.98 25.0565 35.563 24.4148 38.5043 25.4844C40.2156 26.0726 42.6756 28.4257 42.836 29.3883C42.943 30.3509 42.4082 30.8857 41.8734 31.0996C41.2852 31.3135 40.8573 29.5487 37.6487 28.8535C34.44 28.1583 31.7126 29.4952 31.2313 29.0139C30.75 28.4791 31.1243 26.6609 31.5522 25.8587Z" fill="#71A6E1"/>
<path d="M19.6265 25.8587C19.1987 25.0565 15.6156 24.4148 12.6744 25.4844C10.9631 26.0726 8.50306 28.4257 8.34262 29.3883C8.23567 30.3509 8.77045 30.8857 9.30523 31.0996C9.89349 31.3135 10.3213 29.5487 13.53 28.8535C16.7387 28.1583 19.4661 29.4952 19.9474 29.0139C20.3752 28.4791 20.0543 26.6609 19.6265 25.8587Z" fill="#71A6E1"/>
<path d="M29.7339 30.0835C29.1991 30.0835 28.7178 29.8161 28.183 29.6022C27.4878 29.2278 26.6857 28.8535 25.4557 28.8535C24.1187 28.8535 23.1561 29.2813 22.3539 29.6022C21.6052 29.923 20.91 30.1904 20.2683 29.9765C19.0918 29.5487 18.45 28.7465 18.3966 28.693C18.2361 28.4791 18.2896 28.2117 18.45 28.0513C18.6639 27.8909 18.9313 27.9443 19.0918 28.1048C19.0918 28.1048 19.6265 28.7465 20.5357 29.0674C20.8565 29.1743 21.3378 28.9604 21.9796 28.7465C22.7818 28.4256 23.9048 27.9443 25.4022 27.9443C26.7926 27.9443 27.7552 28.4256 28.5039 28.8C29.1991 29.1743 29.5735 29.3348 30.0013 29.1209C31.1243 28.6396 31.3917 28.2652 31.3917 28.2652C31.4987 28.0513 31.7661 27.9978 32.0335 28.1048C32.2474 28.2117 32.3543 28.5326 32.1939 28.7465C32.1404 28.9069 31.7661 29.3883 30.3756 29.9765C30.2152 30.03 29.9478 30.0835 29.7339 30.0835Z" fill="#237C80"/>
<path d="M29.7338 31.6342H20.9634C20.696 31.6342 20.4821 31.4203 20.4821 31.1529C20.4821 30.8855 20.696 30.6716 20.9634 30.6716H29.7338C30.0012 30.6716 30.2151 30.8855 30.2151 31.1529C30.2151 31.4203 30.0012 31.6342 29.7338 31.6342Z" fill="#237C80"/>
<path d="M35.349 41.7951C31.4451 41.7951 28.2365 38.6399 28.2365 34.6825C28.2365 30.7786 31.3917 27.5699 35.349 27.5699C39.2529 27.5699 42.4616 30.7252 42.4616 34.6825C42.4081 38.5864 39.2529 41.7951 35.349 41.7951ZM35.349 28.5326C31.9264 28.5326 29.1991 31.3134 29.1991 34.6825C29.1991 38.1051 31.9799 40.8325 35.349 40.8325C38.7716 40.8325 41.499 38.0517 41.499 34.6825C41.499 31.3134 38.7182 28.5326 35.349 28.5326Z" fill="#237C80"/>
<path d="M15.4018 41.7951C11.4979 41.7951 8.28918 38.6399 8.28918 34.6825C8.28918 30.7786 11.4444 27.5699 15.4018 27.5699C19.3057 27.5699 22.5144 30.7252 22.5144 34.6825C22.4609 38.5864 19.3057 41.7951 15.4018 41.7951ZM15.4018 28.5326C11.9792 28.5326 9.25178 31.3134 9.25178 34.6825C9.25178 38.1051 12.0326 40.8325 15.4018 40.8325C18.8244 40.8325 21.5517 38.0517 21.5517 34.6825C21.5517 31.3134 18.7709 28.5326 15.4018 28.5326Z" fill="#237C80"/>
<path d="M44.6541 35.4847C44.6541 36.2334 44.0659 36.8216 43.3172 36.8216C42.5685 36.8216 41.9802 36.2334 41.9802 35.4847C41.9802 34.736 42.5685 34.1477 43.3172 34.1477C44.0659 34.1477 44.6541 34.7894 44.6541 35.4847Z" fill="#237C80"/>
<path d="M8.98433 35.4847C8.98433 36.2334 8.39607 36.8216 7.64738 36.8216C6.89868 36.8216 6.31042 36.2334 6.31042 35.4847C6.31042 34.736 6.89868 34.1477 7.64738 34.1477C8.39607 34.1477 8.98433 34.7894 8.98433 35.4847Z" fill="#237C80"/>
<path d="M44.1729 35.1639C44.0659 35.3243 43.7985 35.3778 43.5311 35.2174C43.2637 35.0569 43.1033 34.843 43.2103 34.6826C43.3172 34.5221 43.5846 34.4687 43.852 34.6291C44.1194 34.7895 44.2263 35.0034 44.1729 35.1639Z" fill="white"/>
<path d="M7.80775 34.4686C7.91471 34.629 7.75428 34.8964 7.48689 35.0034C7.2195 35.1103 6.9521 35.1103 6.84515 34.9499C6.73819 34.7895 6.89863 34.5221 7.16602 34.4151C7.43341 34.3082 7.7008 34.3082 7.80775 34.4686Z" fill="white"/>
<path d="M36.5254 46.5013C35.9372 47.3569 37.8624 47.7848 36.4185 48.48C35.135 49.1217 31.7659 44.4691 28.6107 44.4691C26.8994 44.4691 26.2042 46.02 26.2042 46.02C26.2042 46.02 25.5624 44.4691 23.7976 44.4691C20.6424 44.4691 17.2733 49.1217 15.9898 48.48C14.5459 47.7313 16.4712 47.3569 15.8829 46.5013C15.4016 45.8061 11.9255 48.373 14.332 51.2608C16.792 54.2556 24.8137 52.5978 26.2042 49.0682C27.5946 52.6513 35.6163 54.2556 38.0763 51.2608C40.4828 48.373 36.9533 45.8061 36.5254 46.5013Z" fill="#71A6E1"/>
<path d="M17.1129 48.4265C17.5408 48.6404 18.0221 48.5335 18.4499 48.373C19.7868 47.9452 20.9634 46.9291 22.1934 46.2874C22.8886 45.913 23.5838 45.6457 24.386 45.6457C25.0812 45.6457 25.616 46.0735 26.0973 46.5548C26.4181 46.8222 26.5786 46.6617 26.8994 46.3943C27.3807 46.02 27.9155 45.6456 28.5572 45.5387C30.1616 45.2713 31.1242 46.5013 32.1938 47.4104C32.9959 48.1056 34.012 48.6939 35.0281 48.9613C35.8303 49.1752 36.7394 49.0148 36.8998 48.1056C36.7929 48.2126 36.6859 48.3196 36.472 48.4265C35.1885 49.0683 31.8194 44.4156 28.6642 44.4156C26.9529 44.4156 26.2577 45.9665 26.2577 45.9665C26.2577 45.9665 25.616 44.4156 23.8512 44.4156C21.2842 44.4156 18.6103 47.4104 17.006 48.2661C17.006 48.373 17.0595 48.373 17.1129 48.4265Z" fill="#71A6E1"/>
<path d="M38.0764 49.9239C35.6164 52.9187 27.5947 50.3517 26.2043 46.7687C24.8138 50.3517 16.7921 52.9187 14.3321 49.9239C13.9578 49.4426 13.6904 48.9613 13.5834 48.5335C13.3695 49.3356 13.5299 50.2982 14.3321 51.2608C16.7921 54.2556 24.8138 52.5978 26.2043 49.0682C27.5947 52.6513 35.6164 54.2556 38.0764 51.2608C38.8786 50.2448 39.039 49.3356 38.8251 48.5335C38.7181 48.9613 38.4507 49.4426 38.0764 49.9239Z" fill="#71A6E1"/>
<path d="M10.9631 15.4304C11.0166 15.4304 11.0166 15.3769 11.0166 15.3769C8.39614 14.0935 6.31049 12.5961 4.49224 10.2965C4.17137 9.92217 3.90398 9.49434 3.63659 9.12C3.42268 9.38739 3.26224 9.6013 3.10181 9.86869C3.3692 10.1896 3.69007 10.5639 3.95746 10.8848C5.72224 12.8635 8.28919 14.6817 10.9631 15.4304Z" fill="#237C80"/>
<path d="M14.8134 14.4144C14.9204 14.4679 15.0273 14.3074 14.9738 14.2539C12.7812 11.9544 10.6421 9.81526 9.03776 7.0344C8.71689 6.44614 8.07516 5.48353 7.80777 4.8418C7.4869 5.21614 7.11255 5.8044 7.11255 5.8044C8.82385 9.33395 11.3373 12.4892 14.8134 14.4144Z" fill="#237C80"/>
<path d="M18.1291 12.9704C18.2361 13.0239 18.3965 12.9704 18.343 12.8634C17.8617 11.5265 17.1665 10.3499 16.8457 9.013C16.4713 7.46213 16.3644 5.91127 16.4713 4.3604C16.5248 3.50476 16.6317 2.59563 16.7387 1.79346C16.3644 1.95389 16.0435 2.06085 15.6691 2.11433C15.5622 2.86302 15.4552 3.61171 15.4552 4.3604C15.2413 7.08779 15.7761 11.1521 18.1291 12.9704Z" fill="#237C80"/>
<path d="M21.017 12.5961C21.0704 12.81 21.3913 12.81 21.4448 12.5961C21.7122 10.9383 21.7122 9.22697 21.9796 7.56915C22.247 5.80437 22.8352 4.20003 23.6909 2.64916C24.0117 2.06091 24.3861 1.47265 24.7604 0.937866C24.2791 0.937866 23.7978 0.937865 23.37 0.991343C23.1026 1.41917 22.7817 1.90047 22.5678 2.38177C20.91 5.4835 20.4822 9.17349 21.017 12.5961Z" fill="#237C80"/>
<path d="M28.183 8.05045C27.1134 9.44088 26.2043 10.8848 25.0813 12.1683C24.9208 12.3822 25.1347 12.7565 25.4021 12.5426C26.5787 11.687 27.4343 10.5639 28.2899 9.3874C29.413 7.94349 30.643 6.71349 32.1404 5.64393C33.8517 4.41394 35.6699 3.39785 37.5951 2.59568C37.1138 2.43525 36.6325 2.27481 36.0978 2.11438C34.6538 2.80959 33.2634 3.61177 31.9265 4.57437C30.4826 5.53698 29.2526 6.66002 28.183 8.05045Z" fill="#237C80"/>
<path d="M28.6108 13.1309C28.5039 13.2378 28.6643 13.4517 28.7713 13.2913C31.2313 11.0452 34.8143 10.2965 37.8091 9.06653C39.7878 8.26436 41.8199 7.51566 43.959 7.03436C43.7451 6.76697 43.5312 6.4461 43.2638 6.17871C41.3921 6.71349 39.6273 7.35523 37.8091 8.10392C34.6004 9.44087 31.0708 10.457 28.6108 13.1309Z" fill="#237C80"/>
<path d="M34.0122 13.7727C33.9052 13.7727 33.8517 13.9331 33.9587 13.9866C35.8304 14.8422 38.0765 15.0027 40.1087 15.377C42.0339 15.6979 44.0126 15.7514 45.9378 15.484C46.0982 15.484 46.2052 15.4305 46.3656 15.377C46.3656 15.0027 46.3121 14.6283 46.3121 14.254C45.9913 14.3609 45.6169 14.4144 45.2961 14.4679C41.4991 15.1096 37.8091 13.6657 34.0122 13.7727Z" fill="#237C80"/>
<path d="M45.082 45.9665C45.082 45.9665 43.5846 49.496 41.5525 51.0469C39.5203 52.5443 37.2742 52.8117 37.2742 52.8117C37.2742 52.8117 37.809 58.8012 30.6429 60.3521C25.8834 61.4217 26.4717 55.5391 26.4717 55.5391H24.8138C24.8138 55.5391 26.739 61.3682 20.6425 60.3521C14.1182 59.2825 14.0113 52.8117 14.0113 52.8117C14.0113 52.8117 11.7652 52.5443 9.73302 51.0469C7.70085 49.5495 6.20346 45.9665 6.20346 45.9665L5.77563 45.6991C6.68476 50.2982 7.91476 54.2556 9.30519 56.7691C12.193 61.9564 18.6104 64.2025 24.9208 64.2025C31.2847 64.3095 39.039 61.9564 41.9268 56.7691C43.3172 54.2556 44.5472 50.2447 45.4564 45.6991L45.082 45.9665Z" fill="#71A6E1"/>
</svg>
